{
  "accessors": [
    {
      "bufferView": 2,
      "componentType": 5126,
      "count": 19589,
      "max": [
        18.584182739257813,
        79.79066467285156,
        80.5958251953125
      ],
      "min": [
        -18.087425231933594,
        0.041716694831848145,
        -84.34431457519531
      ],
      "type": "VEC3"
    },
    {
      "bufferView": 2,
      "byteOffset": 235068,
      "componentType": 5126,
      "count": 19589,
      "max": [
        0.9999524354934692,
        0.9999980330467224,
        0.9998060464859009
      ],
      "min": [
        -0.9999518990516663,
        -0.9999951720237732,
        -0.9999817609786987
      ],
      "type": "VEC3"
    },
    {
      "bufferView": 3,
      "componentType": 5126,
      "count": 19589,
      "max": [
        0.9999978542327881,
        0.9997270107269287,
        0.9999682903289795,
        1.0
      ],
      "min": [
        -0.9999997019767761,
        -0.9996650218963623,
        -0.9999845623970032,
        -1.0
      ],
      "type": "VEC4"
    },
    {
      "bufferView": 1,
      "componentType": 5126,
      "count": 19589,
      "max": [
        0.9926992058753967,
        0.9928951859474182
      ],
      "min": [
        0.005771022289991379,
        0.005910217761993408
      ],
      "type": "VEC2"
    },
    {
      "bufferView": 1,
      "byteOffset": 156712,
      "componentType": 5126,
      "count": 19589,
      "max": [
        0.9926992058753967,
        0.9928951859474182
      ],
      "min": [
        0.005771022289991379,
        0.005910217761993408
      ],
      "type": "VEC2"
    },
    {
      "bufferView": 1,
      "byteOffset": 313424,
      "componentType": 5126,
      "count": 19589,
      "max": [
        0.9926992058753967,
        0.9928951859474182
      ],
      "min": [
        0.005771022289991379,
        0.005910217761993408
      ],
      "type": "VEC2"
    },
    {
      "bufferView": 1,
      "byteOffset": 470136,
      "componentType": 5126,
      "count": 19589,
      "max": [
        0.9926992058753967,
        0.9928951859474182
      ],
      "min": [
        0.005771022289991379,
        0.005910217761993408
      ],
      "type": "VEC2"
    },
    {
      "bufferView": 1,
      "byteOffset": 626848,
      "componentType": 5126,
      "count": 19589,
      "max": [
        0.9926992058753967,
        0.9928951859474182
      ],
      "min": [
        0.005771022289991379,
        0.005910217761993408
      ],
      "type": "VEC2"
    },
    {
      "bufferView": 0,
      "componentType": 5125,
      "count": 102708,
      "type": "SCALAR"
    }
  ],
  "asset": {
    "extras": {
      "author": "dinomaster (https://sketchfab.com/dinomaster)",
      "license": "CC-BY-4.0 (http://creativecommons.org/licenses/by/4.0/)",
      "source": "https://sketchfab.com/3d-models/smilodon-dc110983d5e04edeb9ae3f2594340025",
      "title": "smilodon"
    },
    "generator": "Sketchfab-14.87.0",
    "version": "2.0"
  },
  "bufferViews": [
    {
      "buffer": 0,
      "byteLength": 410832,
      "name": "floatBufferViews",
      "target": 34963
    },
    {
      "buffer": 0,
      "byteLength": 783560,
      "byteOffset": 410832,
      "byteStride": 8,
      "name": "floatBufferViews",
      "target": 34962
    },
    {
      "buffer": 0,
      "byteLength": 470136,
      "byteOffset": 1194392,
      "byteStride": 12,
      "name": "floatBufferViews",
      "target": 34962
    },
    {
      "buffer": 0,
      "byteLength": 313424,
      "byteOffset": 1664528,
      "byteStride": 16,
      "name": "floatBufferViews",
      "target": 34962
    }
  ],
  "buffers": [
    {
      "byteLength": 1977952,
      "uri": "scene.bin"
    }
  ],
  "extensionsRequired": [
    "KHR_materials_pbrSpecularGlossiness"
  ],
  "extensionsUsed": [
    "KHR_materials_pbrSpecularGlossiness"
  ],
  "images": [
    {
      "uri": "textures/material_0_diffuse.png"
    },
    {
      "uri": "textures/material_0_specularGlossiness.png"
    },
    {
      "uri": "textures/material_0_normal.png"
    },
    {
      "uri": "textures/material_0_occlusion.png"
    }
  ],
  "materials": [
    {
      "doubleSided": true,
      "extensions": {
        "KHR_materials_pbrSpecularGlossiness": {
          "diffuseFactor": [
            1.0,
            1.0,
            1.0,
            1.0
          ],
          "diffuseTexture": {
            "index": 0
          },
          "glossinessFactor": 1.0,
          "specularFactor": [
            1.0,
            1.0,
            1.0
          ],
          "specularGlossinessTexture": {
            "index": 1
          }
        }
      },
      "name": "material_0",
      "normalTexture": {
        "index": 2
      },
      "occlusionTexture": {
        "index": 3
      }
    }
  ],
  "meshes": [
    {
      "name": "Object_0",
      "primitives": [
        {
          "attributes": {
            "NORMAL": 1,
            "POSITION": 0,
            "TANGENT": 2,
            "TEXCOORD_0": 3,
            "TEXCOORD_1": 4,
            "TEXCOORD_2": 5,
            "TEXCOORD_3": 6,
            "TEXCOORD_4": 7
          },
          "indices": 8,
          "material": 0,
          "mode": 4
        }
      ]
    }
  ],
  "nodes": [
    {
      "children": [
        1
      ],
      "matrix": [
        1.0,
        0.0,
        0.0,
        0.0,
        0.0,
        2.220446049250313e-16,
        -1.0,
        0.0,
        0.0,
        1.0,
        2.220446049250313e-16,
        0.0,
        0.0,
        0.0,
        0.0,
        1.0
      ],
      "name": "Sketchfab_model"
    },
    {
      "children": [
        2
      ],
      "name": "root"
    },
    {
      "children": [
        3
      ],
      "matrix": [
        1.0,
        0.0,
        0.0,
        0.0,
        0.0,
        2.220446049250313e-16,
        1.0,
        0.0,
        0.0,
        -1.0,
        2.220446049250313e-16,
        0.0,
        0.0,
        0.0,
        0.0,
        1.0
      ],
      "name": "GLTF_SceneRootNode"
    },
    {
      "children": [
        4
      ],
      "matrix": [
        0.009999999776482582,
        0.0,
        0.0,
        0.0,
        0.0,
        0.009999999776482582,
        0.0,
        0.0,
        0.0,
        0.0,
        0.009999999776482582,
        0.0,
        0.0,
        0.0,
        0.0,
        1.0
      ],
      "name": "RootNode.0_0"
    },
    {
      "children": [
        5
      ],
      "name": "saber_toothed_tiger.1_1"
    },
    {
      "mesh": 0,
      "name": "Object_5"
    }
  ],
  "samplers": [
    {
      "magFilter": 9729,
      "minFilter": 9987,
      "wrapS": 10497,
      "wrapT": 10497
    }
  ],
  "scene": 0,
  "scenes": [
    {
      "name": "Sketchfab_Scene",
      "nodes": [
        0
      ]
    }
  ],
  "textures": [
    {
      "sampler": 0,
      "source": 0
    },
    {
      "sampler": 0,
      "source": 1
    },
    {
      "sampler": 0,
      "source": 2
    },
    {
      "sampler": 0,
      "source": 3
    }
  ]
}
