{
  "accessors": [
    {
      "bufferView": 2,
      "componentType": 5126,
      "count": 65532,
      "max": [
        0.1320798546075821,
        -0.00027389981551095843,
        0.11744550615549088
      ],
      "min": [
        -0.13059952855110168,
        -0.16532115638256073,
        -0.11744550615549088
      ],
      "type": "VEC3"
    },
    {
      "bufferView": 2,
      "byteOffset": 786384,
      "componentType": 5126,
      "count": 65532,
      "max": [
        0.9999309778213501,
        0.9999844431877136,
        0.9999736547470093
      ],
      "min": [
        -0.9999920129776001,
        -0.9999130368232727,
        -0.999963641166687
      ],
      "type": "VEC3"
    },
    {
      "bufferView": 1,
      "componentType": 5126,
      "count": 65532,
      "max": [
        0.9968000054359436,
        0.9999639987945557
      ],
      "min": [
        0.0011953799985349178,
        1.3504300113709178e-05
      ],
      "type": "VEC2"
    },
    {
      "bufferView": 0,
      "componentType": 5125,
      "count": 360231,
      "type": "SCALAR"
    },
    {
      "bufferView": 2,
      "byteOffset": 1572768,
      "componentType": 5126,
      "count": 38288,
      "max": [
        0.13051152229309082,
        2.2214940997855592e-10,
        0.10767550766468048
      ],
      "min": [
        -0.1320798546075821,
        -0.1548977494239807,
        -0.11529549211263657
      ],
      "type": "VEC3"
    },
    {
      "bufferView": 2,
      "byteOffset": 2032224,
      "componentType": 5126,
      "count": 38288,
      "max": [
        0.9999953508377075,
        0.9999984502792358,
        0.9999255537986755
      ],
      "min": [
        -0.9999947547912598,
        -0.9999130368232727,
        -0.9996460676193237
      ],
      "type": "VEC3"
    },
    {
      "bufferView": 1,
      "byteOffset": 524256,
      "componentType": 5126,
      "count": 38288,
      "max": [
        0.9881269931793213,
        0.9899830222129822
      ],
      "min": [
        2.9166199965402484e-05,
        0.010108900256454945
      ],
      "type": "VEC2"
    },
    {
      "bufferView": 0,
      "byteOffset": 1440924,
      "componentType": 5125,
      "count": 208362,
      "type": "SCALAR"
    },
    {
      "bufferView": 2,
      "byteOffset": 2491680,
      "componentType": 5126,
      "count": 1898,
      "max": [
        0.08583003282546997,
        -0.022143719717860222,
        -0.116151824593544
      ],
      "min": [
        -0.05333095043897629,
        -0.11040417104959488,
        -0.11744550615549088
      ],
      "type": "VEC3"
    },
    {
      "bufferView": 2,
      "byteOffset": 2514456,
      "componentType": 5126,
      "count": 1898,
      "max": [
        0.9937489032745361,
        0.9876435399055481,
        0.7671253681182861
      ],
      "min": [
        -0.9940727353096008,
        -0.9990555644035339,
        -0.9999637603759766
      ],
      "type": "VEC3"
    },
    {
      "bufferView": 1,
      "byteOffset": 830560,
      "componentType": 5126,
      "count": 1898,
      "max": [
        0.0,
        0.0
      ],
      "min": [
        0.0,
        0.0
      ],
      "type": "VEC2"
    },
    {
      "bufferView": 0,
      "byteOffset": 2274372,
      "componentType": 5125,
      "count": 9363,
      "type": "SCALAR"
    }
  ],
  "asset": {
    "extras": {
      "author": "Emm (Scenario) (https://sketchfab.com/edemaistre)",
      "license": "CC-BY-4.0 (http://creativecommons.org/licenses/by/4.0/)",
      "source": "https://sketchfab.com/3d-models/spawn-mega-cygor-3-d76c2f26905440cd957de261301d09ba",
      "title": "Spawn Mega-Cygor (3)"
    },
    "generator": "Sketchfab-13.74.0",
    "version": "2.0"
  },
  "bufferViews": [
    {
      "buffer": 0,
      "byteLength": 2311824,
      "name": "floatBufferViews",
      "target": 34963
    },
    {
      "buffer": 0,
      "byteLength": 845744,
      "byteOffset": 2311824,
      "byteStride": 8,
      "name": "floatBufferViews",
      "target": 34962
    },
    {
      "buffer": 0,
      "byteLength": 2537232,
      "byteOffset": 3157568,
      "byteStride": 12,
      "name": "floatBufferViews",
      "target": 34962
    }
  ],
  "buffers": [
    {
      "byteLength": 5694800,
      "uri": "scene.bin"
    }
  ],
  "extensionsUsed": [
    "KHR_materials_unlit"
  ],
  "images": [
    {
      "uri": "textures/material_1_baseColor.png"
    }
  ],
  "materials": [
    {
      "doubleSided": true,
      "extensions": {
        "KHR_materials_unlit": {}
      },
      "name": "material_1",
      "pbrMetallicRoughness": {
        "baseColorTexture": {
          "index": 0
        },
        "metallicFactor": 0.0
      }
    }
  ],
  "meshes": [
    {
      "name": "Object_0",
      "primitives": [
        {
          "attributes": {
            "NORMAL": 1,
            "POSITION": 0,
            "TEXCOORD_0": 2
          },
          "indices": 3,
          "material": 0,
          "mode": 4
        }
      ]
    },
    {
      "name": "Object_1",
      "primitives": [
        {
          "attributes": {
            "NORMAL": 5,
            "POSITION": 4,
            "TEXCOORD_0": 6
          },
          "indices": 7,
          "material": 0,
          "mode": 4
        }
      ]
    },
    {
      "name": "Object_2",
      "primitives": [
        {
          "attributes": {
            "NORMAL": 9,
            "POSITION": 8,
            "TEXCOORD_0": 10
          },
          "indices": 11,
          "material": 0,
          "mode": 4
        }
      ]
    }
  ],
  "nodes": [
    {
      "children": [
        1
      ],
      "matrix": [
        1.0,
        0.0,
        0.0,
        0.0,
        0.0,
        2.220446049250313e-16,
        -1.0,
        0.0,
        0.0,
        1.0,
        2.220446049250313e-16,
        0.0,
        0.0,
        0.0,
        0.0,
        1.0
      ],
      "name": "Sketchfab_model"
    },
    {
      "children": [
        2,
        3,
        4
      ],
      "name": "gorilla-5.obj.cleaner.materialmerger.gles"
    },
    {
      "mesh": 0,
      "name": "Object_2"
    },
    {
      "mesh": 1,
      "name": "Object_3"
    },
    {
      "mesh": 2,
      "name": "Object_4"
    }
  ],
  "samplers": [
    {
      "magFilter": 9729,
      "minFilter": 9987,
      "wrapS": 10497,
      "wrapT": 10497
    }
  ],
  "scene": 0,
  "scenes": [
    {
      "name": "Sketchfab_Scene",
      "nodes": [
        0
      ]
    }
  ],
  "textures": [
    {
      "sampler": 0,
      "source": 0
    }
  ]
}
